<svg xmlns="http://www.w3.org/2000/svg" width="472" height="174" viewBox="0 0 472 174">
  <text x="20" y="60" font-family="sans-serif" font-size="9" fill="#767676">Mon</text>
  <text x="20" y="88" font-family="sans-serif" font-size="9" fill="#767676">Wed</text>
  <text x="20" y="116" font-family="sans-serif" font-size="9" fill="#767676">Fri</text>
  <text x="46" y="32" font-family="sans-serif" font-size="9" fill="#767676">Jan</text>
  <text x="116" y="32" font-family="sans-serif" font-size="9" fill="#767676">Feb</text>
  <text x="172" y="32" font-family="sans-serif" font-size="9" fill="#767676">Mar</text>
  <text x="242" y="32" font-family="sans-serif" font-size="9" fill="#767676">Apr</text>
  <text x="298" y="32" font-family="sans-serif" font-size="9" fill="#767676">May</text>
  <text x="354" y="32" font-family="sans-serif" font-size="9" fill="#767676">Jun</text>
  <text x="424" y="32" font-family="sans-serif" font-size="9" fill="#767676">Jul</text>
  <rect x="46" y="50" width="11" height="11" rx="2" ry="2" fill="#9be9a8"><title>2024-01-01: 10</title></rect>
  <rect x="46" y="64" width="11" height="11" rx="2" ry="2" fill="#9be9a8"><title>2024-01-02: 4</title></rect>
  <rect x="46" y="78" width="11" height="11" rx="2" ry="2" fill="#216e39"><title>2024-01-03: 35</title></rect>
  <rect x="46" y="92" width="11" height="11" rx="2" ry="2" fill="#216e39"><title>2024-01-04: 38</title></rect>
  <rect x="46" y="106" width="11" height="11" rx="2" ry="2" fill="#30a14e"><title>2024-01-05: 33</title></rect>
  <rect x="46" y="120" width="11" height="11" rx="2" ry="2" fill="#9be9a8"><title>2024-01-06: 6</title></rect>
  <rect x="60" y="36" width="11" height="11" rx="2" ry="2" fill="#9be9a8"><title>2024-01-07: 5</title></rect>
  <rect x="60" y="50" width="11" height="11" rx="2" ry="2" fill="#216e39"><title>2024-01-08: 36</title></rect>
  <rect x="60" y="64" width="11" height="11" rx="2" ry="2" fill="#216e39"><title>2024-01-09: 37</title></rect>
  <rect x="60" y="78" width="11" height="11" rx="2" ry="2" fill="#40c463"><title>2024-01-10: 15</title></rect>
  <rect x="60" y="92" width="11" height="11" rx="2" ry="2" fill="#ebedf0"><title>2024-01-11: 0</title></rect>
  <rect x="60" y="106" width="11" height="11" rx="2" ry="2" fill="#9be9a8"><title>2024-01-12: 4</title></rect>
  <rect x="60" y="120" width="11" height="11" rx="2" ry="2" fill="#30a14e"><title>2024-01-13: 26</title></rect>
  <rect x="74" y="36" width="11" height="11" rx="2" ry="2" fill="#40c463"><title>2024-01-14: 15</title></rect>
  <rect x="74" y="50" width="11" height="11" rx="2" ry="2" fill="#9be9a8"><title>2024-01-15: 9</title></rect>
  <rect x="74" y="64" width="11" height="11" rx="2" ry="2" fill="#9be9a8"><title>2024-01-16: 10</title></rect>
  <rect x="74" y="78" width="11" height="11" rx="2" ry="2" fill="#216e39"><title>2024-01-17: 37</title></rect>
  <rect x="74" y="92" width="11" height="11" rx="2" ry="2" fill="#216e39"><title>2024-01-18: 44</title></rect>
  <rect x="74" y="106" width="11" height="11" rx="2" ry="2" fill="#216e39"><title>2024-01-19: 38</title></rect>
  <rect x="74" y="120" width="11" height="11" rx="2" ry="2" fill="#40c463"><title>2024-01-20: 13</title></rect>
  <rect x="88" y="36" width="11" height="11" rx="2" ry="2" fill="#216e39"><title>2024-01-21: 36</title></rect>
  <rect x="88" y="50" width="11" height="11" rx="2" ry="2" fill="#ebedf0"><title>2024-01-22: 0</title></rect>
  <rect x="88" y="64" width="11" height="11" rx="2" ry="2" fill="#216e39"><title>2024-01-23: 40</title></rect>
  <rect x="88" y="78" width="11" height="11" rx="2" ry="2" fill="#216e39"><title>2024-01-24: 44</title></rect>
  <rect x="88" y="92" width="11" height="11" rx="2" ry="2" fill="#40c463"><title>2024-01-25: 21</title></rect>
  <rect x="88" y="106" width="11" height="11" rx="2" ry="2" fill="#30a14e"><title>2024-01-26: 30</title></rect>
  <rect x="88" y="120" width="11" height="11" rx="2" ry="2" fill="#40c463"><title>2024-01-27: 16</title></rect>
  <rect x="102" y="36" width="11" height="11" rx="2" ry="2" fill="#ebedf0"><title>2024-01-28: 0</title></rect>
  <rect x="102" y="50" width="11" height="11" rx="2" ry="2" fill="#ebedf0"><title>2024-01-29: 0</title></rect>
  <rect x="102" y="64" width="11" height="11" rx="2" ry="2" fill="#216e39"><title>2024-01-30: 37</title></rect>
  <rect x="102" y="78" width="11" height="11" rx="2" ry="2" fill="#30a14e"><title>2024-01-31: 32</title></rect>
  <rect x="102" y="92" width="11" height="11" rx="2" ry="2" fill="#ebedf0"><title>2024-02-01: 0</title></rect>
  <rect x="102" y="106" width="11" height="11" rx="2" ry="2" fill="#ebedf0"><title>2024-02-02: 0</title></rect>
  <rect x="102" y="120" width="11" height="11" rx="2" ry="2" fill="#9be9a8"><title>2024-02-03: 5</title></rect>
  <rect x="116" y="36" width="11" height="11" rx="2" ry="2" fill="#30a14e"><title>2024-02-04: 27</title></rect>
  <rect x="116" y="50" width="11" height="11" rx="2" ry="2" fill="#40c463"><title>2024-02-05: 22</title></rect>
  <rect x="116" y="64" width="11" height="11" rx="2" ry="2" fill="#30a14e"><title>2024-02-06: 32</title></rect>
  <rect x="116" y="78" width="11" height="11" rx="2" ry="2" fill="#216e39"><title>2024-02-07: 43</title></rect>
  <rect x="116" y="92" width="11" height="11" rx="2" ry="2" fill="#216e39"><title>2024-02-08: 36</title></rect>
  <rect x="116" y="106" width="11" height="11" rx="2" ry="2" fill="#40c463"><title>2024-02-09: 21</title></rect>
  <rect x="116" y="120" width="11" height="11" rx="2" ry="2" fill="#30a14e"><title>2024-02-10: 23</title></rect>
  <rect x="130" y="36" width="11" height="11" rx="2" ry="2" fill="#216e39"><title>2024-02-11: 38</title></rect>
  <rect x="130" y="50" width="11" height="11" rx="2" ry="2" fill="#ebedf0"><title>2024-02-12: 0</title></rect>
  <rect x="130" y="64" width="11" height="11" rx="2" ry="2" fill="#9be9a8"><title>2024-02-13: 6</title></rect>
  <rect x="130" y="78" width="11" height="11" rx="2" ry="2" fill="#ebedf0"><title>2024-02-14: 0</title></rect>
  <rect x="130" y="92" width="11" height="11" rx="2" ry="2" fill="#216e39"><title>2024-02-15: 43</title></rect>
  <rect x="130" y="106" width="11" height="11" rx="2" ry="2" fill="#216e39"><title>2024-02-16: 45</title></rect>
  <rect x="130" y="120" width="11" height="11" rx="2" ry="2" fill="#216e39"><title>2024-02-17: 37</title></rect>
  <rect x="144" y="36" width="11" height="11" rx="2" ry="2" fill="#ebedf0"><title>2024-02-18: 0</title></rect>
  <rect x="144" y="50" width="11" height="11" rx="2" ry="2" fill="#ebedf0"><title>2024-02-19: 0</title></rect>
  <rect x="144" y="64" width="11" height="11" rx="2" ry="2" fill="#30a14e"><title>2024-02-20: 25</title></rect>
  <rect x="144" y="78" width="11" height="11" rx="2" ry="2" fill="#ebedf0"><title>2024-02-21: 0</title></rect>
  <rect x="144" y="92" width="11" height="11" rx="2" ry="2" fill="#30a14e"><title>2024-02-22: 30</title></rect>
  <rect x="144" y="106" width="11" height="11" rx="2" ry="2" fill="#216e39"><title>2024-02-23: 40</title></rect>
  <rect x="144" y="120" width="11" height="11" rx="2" ry="2" fill="#9be9a8"><title>2024-02-24: 4</title></rect>
  <rect x="158" y="36" width="11" height="11" rx="2" ry="2" fill="#40c463"><title>2024-02-25: 19</title></rect>
  <rect x="158" y="50" width="11" height="11" rx="2" ry="2" fill="#40c463"><title>2024-02-26: 16</title></rect>
  <rect x="158" y="64" width="11" height="11" rx="2" ry="2" fill="#30a14e"><title>2024-02-27: 32</title></rect>
  <rect x="158" y="78" width="11" height="11" rx="2" ry="2" fill="#30a14e"><title>2024-02-28: 29</title></rect>
  <rect x="158" y="92" width="11" height="11" rx="2" ry="2" fill="#40c463"><title>2024-02-29: 18</title></rect>
  <rect x="158" y="106" width="11" height="11" rx="2" ry="2" fill="#ebedf0"><title>2024-03-01: 0</title></rect>
  <rect x="158" y="120" width="11" height="11" rx="2" ry="2" fill="#ebedf0"><title>2024-03-02: 0</title></rect>
  <rect x="172" y="36" width="11" height="11" rx="2" ry="2" fill="#ebedf0"><title>2024-03-03: 0</title></rect>
  <rect x="172" y="50" width="11" height="11" rx="2" ry="2" fill="#30a14e"><title>2024-03-04: 27</title></rect>
  <rect x="172" y="64" width="11" height="11" rx="2" ry="2" fill="#ebedf0"><title>2024-03-05: 0</title></rect>
  <rect x="172" y="78" width="11" height="11" rx="2" ry="2" fill="#ebedf0"><title>2024-03-06: 0</title></rect>
  <rect x="172" y="92" width="11" height="11" rx="2" ry="2" fill="#40c463"><title>2024-03-07: 15</title></rect>
  <rect x="172" y="106" width="11" height="11" rx="2" ry="2" fill="#40c463"><title>2024-03-08: 12</title></rect>
  <rect x="172" y="120" width="11" height="11" rx="2" ry="2" fill="#216e39"><title>2024-03-09: 43</title></rect>
  <rect x="186" y="36" width="11" height="11" rx="2" ry="2" fill="#30a14e"><title>2024-03-10: 32</title></rect>
  <rect x="186" y="50" width="11" height="11" rx="2" ry="2" fill="#ebedf0"><title>2024-03-11: 0</title></rect>
  <rect x="186" y="64" width="11" height="11" rx="2" ry="2" fill="#40c463"><title>2024-03-12: 19</title></rect>
  <rect x="186" y="78" width="11" height="11" rx="2" ry="2" fill="#30a14e"><title>2024-03-13: 27</title></rect>
  <rect x="186" y="92" width="11" height="11" rx="2" ry="2" fill="#216e39"><title>2024-03-14: 40</title></rect>
  <rect x="186" y="106" width="11" height="11" rx="2" ry="2" fill="#9be9a8"><title>2024-03-15: 9</title></rect>
  <rect x="186" y="120" width="11" height="11" rx="2" ry="2" fill="#ebedf0"><title>2024-03-16: 0</title></rect>
  <rect x="200" y="36" width="11" height="11" rx="2" ry="2" fill="#216e39"><title>2024-03-17: 40</title></rect>
  <rect x="200" y="50" width="11" height="11" rx="2" ry="2" fill="#ebedf0"><title>2024-03-18: 0</title></rect>
  <rect x="200" y="64" width="11" height="11" rx="2" ry="2" fill="#ebedf0"><title>2024-03-19: 0</title></rect>
  <rect x="200" y="78" width="11" height="11" rx="2" ry="2" fill="#216e39"><title>2024-03-20: 44</title></rect>
  <rect x="200" y="92" width="11" height="11" rx="2" ry="2" fill="#ebedf0"><title>2024-03-21: 0</title></rect>
  <rect x="200" y="106" width="11" height="11" rx="2" ry="2" fill="#30a14e"><title>2024-03-22: 26</title></rect>
  <rect x="200" y="120" width="11" height="11" rx="2" ry="2" fill="#30a14e"><title>2024-03-23: 31</title></rect>
  <rect x="214" y="36" width="11" height="11" rx="2" ry="2" fill="#ebedf0"><title>2024-03-24: 0</title></rect>
  <rect x="214" y="50" width="11" height="11" rx="2" ry="2" fill="#9be9a8"><title>2024-03-25: 5</title></rect>
  <rect x="214" y="64" width="11" height="11" rx="2" ry="2" fill="#ebedf0"><title>2024-03-26: 0</title></rect>
  <rect x="214" y="78" width="11" height="11" rx="2" ry="2" fill="#9be9a8"><title>2024-03-27: 8</title></rect>
  <rect x="214" y="92" width="11" height="11" rx="2" ry="2" fill="#9be9a8"><title>2024-03-28: 4</title></rect>
  <rect x="214" y="106" width="11" height="11" rx="2" ry="2" fill="#216e39"><title>2024-03-29: 37</title></rect>
  <rect x="214" y="120" width="11" height="11" rx="2" ry="2" fill="#9be9a8"><title>2024-03-30: 7</title></rect>
  <rect x="228" y="36" width="11" height="11" rx="2" ry="2" fill="#ebedf0"><title>2024-03-31: 0</title></rect>
  <rect x="228" y="50" width="11" height="11" rx="2" ry="2" fill="#ebedf0"><title>2024-04-01: 0</title></rect>
  <rect x="228" y="64" width="11" height="11" rx="2" ry="2" fill="#40c463"><title>2024-04-02: 14</title></rect>
  <rect x="228" y="78" width="11" height="11" rx="2" ry="2" fill="#ebedf0"><title>2024-04-03: 0</title></rect>
  <rect x="228" y="92" width="11" height="11" rx="2" ry="2" fill="#40c463"><title>2024-04-04: 17</title></rect>
  <rect x="228" y="106" width="11" height="11" rx="2" ry="2" fill="#ebedf0"><title>2024-04-05: 0</title></rect>
  <rect x="228" y="120" width="11" height="11" rx="2" ry="2" fill="#ebedf0"><title>2024-04-06: 0</title></rect>
  <rect x="242" y="36" width="11" height="11" rx="2" ry="2" fill="#9be9a8"><title>2024-04-07: 8</title></rect>
  <rect x="242" y="50" width="11" height="11" rx="2" ry="2" fill="#ebedf0"><title>2024-04-08: 0</title></rect>
  <rect x="242" y="64" width="11" height="11" rx="2" ry="2" fill="#ebedf0"><title>2024-04-09: 0</title></rect>
  <rect x="242" y="78" width="11" height="11" rx="2" ry="2" fill="#30a14e"><title>2024-04-10: 31</title></rect>
  <rect x="242" y="92" width="11" height="11" rx="2" ry="2" fill="#9be9a8"><title>2024-04-11: 10</title></rect>
  <rect x="242" y="106" width="11" height="11" rx="2" ry="2" fill="#40c463"><title>2024-04-12: 22</title></rect>
  <rect x="242" y="120" width="11" height="11" rx="2" ry="2" fill="#ebedf0"><title>2024-04-13: 0</title></rect>
  <rect x="256" y="36" width="11" height="11" rx="2" ry="2" fill="#216e39"><title>2024-04-14: 45</title></rect>
  <rect x="256" y="50" width="11" height="11" rx="2" ry="2" fill="#9be9a8"><title>2024-04-15: 2</title></rect>
  <rect x="256" y="64" width="11" height="11" rx="2" ry="2" fill="#216e39"><title>2024-04-16: 34</title></rect>
  <rect x="256" y="78" width="11" height="11" rx="2" ry="2" fill="#216e39"><title>2024-04-17: 45</title></rect>
  <rect x="256" y="92" width="11" height="11" rx="2" ry="2" fill="#9be9a8"><title>2024-04-18: 2</title></rect>
  <rect x="256" y="106" width="11" height="11" rx="2" ry="2" fill="#ebedf0"><title>2024-04-19: 0</title></rect>
  <rect x="256" y="120" width="11" height="11" rx="2" ry="2" fill="#216e39"><title>2024-04-20: 42</title></rect>
  <rect x="270" y="36" width="11" height="11" rx="2" ry="2" fill="#ebedf0"><title>2024-04-21: 0</title></rect>
  <rect x="270" y="50" width="11" height="11" rx="2" ry="2" fill="#ebedf0"><title>2024-04-22: 0</title></rect>
  <rect x="270" y="64" width="11" height="11" rx="2" ry="2" fill="#30a14e"><title>2024-04-23: 24</title></rect>
  <rect x="270" y="78" width="11" height="11" rx="2" ry="2" fill="#ebedf0"><title>2024-04-24: 0</title></rect>
  <rect x="270" y="92" width="11" height="11" rx="2" ry="2" fill="#40c463"><title>2024-04-25: 15</title></rect>
  <rect x="270" y="106" width="11" height="11" rx="2" ry="2" fill="#30a14e"><title>2024-04-26: 33</title></rect>
  <rect x="270" y="120" width="11" height="11" rx="2" ry="2" fill="#40c463"><title>2024-04-27: 15</title></rect>
  <rect x="284" y="36" width="11" height="11" rx="2" ry="2" fill="#ebedf0"><title>2024-04-28: 0</title></rect>
  <rect x="284" y="50" width="11" height="11" rx="2" ry="2" fill="#ebedf0"><title>2024-04-29: 0</title></rect>
  <rect x="284" y="64" width="11" height="11" rx="2" ry="2" fill="#ebedf0"><title>2024-04-30: 0</title></rect>
  <rect x="284" y="78" width="11" height="11" rx="2" ry="2" fill="#40c463"><title>2024-05-01: 16</title></rect>
  <rect x="284" y="92" width="11" height="11" rx="2" ry="2" fill="#ebedf0"><title>2024-05-02: 0</title></rect>
  <rect x="284" y="106" width="11" height="11" rx="2" ry="2" fill="#ebedf0"><title>2024-05-03: 0</title></rect>
  <rect x="284" y="120" width="11" height="11" rx="2" ry="2" fill="#216e39"><title>2024-05-04: 34</title></rect>
  <rect x="298" y="36" width="11" height="11" rx="2" ry="2" fill="#9be9a8"><title>2024-05-05: 2</title></rect>
  <rect x="298" y="50" width="11" height="11" rx="2" ry="2" fill="#ebedf0"><title>2024-05-06: 0</title></rect>
  <rect x="298" y="64" width="11" height="11" rx="2" ry="2" fill="#ebedf0"><title>2024-05-07: 0</title></rect>
  <rect x="298" y="78" width="11" height="11" rx="2" ry="2" fill="#40c463"><title>2024-05-08: 13</title></rect>
  <rect x="298" y="92" width="11" height="11" rx="2" ry="2" fill="#ebedf0"><title>2024-05-09: 0</title></rect>
  <rect x="298" y="106" width="11" height="11" rx="2" ry="2" fill="#ebedf0"><title>2024-05-10: 0</title></rect>
  <rect x="298" y="120" width="11" height="11" rx="2" ry="2" fill="#30a14e"><title>2024-05-11: 23</title></rect>
  <rect x="312" y="36" width="11" height="11" rx="2" ry="2" fill="#ebedf0"><title>2024-05-12: 0</title></rect>
  <rect x="312" y="50" width="11" height="11" rx="2" ry="2" fill="#40c463"><title>2024-05-13: 15</title></rect>
  <rect x="312" y="64" width="11" height="11" rx="2" ry="2" fill="#30a14e"><title>2024-05-14: 31</title></rect>
  <rect x="312" y="78" width="11" height="11" rx="2" ry="2" fill="#40c463"><title>2024-05-15: 14</title></rect>
  <rect x="312" y="92" width="11" height="11" rx="2" ry="2" fill="#216e39"><title>2024-05-16: 40</title></rect>
  <rect x="312" y="106" width="11" height="11" rx="2" ry="2" fill="#ebedf0"><title>2024-05-17: 0</title></rect>
  <rect x="312" y="120" width="11" height="11" rx="2" ry="2" fill="#216e39"><title>2024-05-18: 42</title></rect>
  <rect x="326" y="36" width="11" height="11" rx="2" ry="2" fill="#216e39"><title>2024-05-19: 42</title></rect>
  <rect x="326" y="50" width="11" height="11" rx="2" ry="2" fill="#216e39"><title>2024-05-20: 43</title></rect>
  <rect x="326" y="64" width="11" height="11" rx="2" ry="2" fill="#30a14e"><title>2024-05-21: 25</title></rect>
  <rect x="326" y="78" width="11" height="11" rx="2" ry="2" fill="#ebedf0"><title>2024-05-22: 0</title></rect>
  <rect x="326" y="92" width="11" height="11" rx="2" ry="2" fill="#ebedf0"><title>2024-05-23: 0</title></rect>
  <rect x="326" y="106" width="11" height="11" rx="2" ry="2" fill="#40c463"><title>2024-05-24: 12</title></rect>
  <rect x="326" y="120" width="11" height="11" rx="2" ry="2" fill="#216e39"><title>2024-05-25: 41</title></rect>
  <rect x="340" y="36" width="11" height="11" rx="2" ry="2" fill="#30a14e"><title>2024-05-26: 26</title></rect>
  <rect x="340" y="50" width="11" height="11" rx="2" ry="2" fill="#9be9a8"><title>2024-05-27: 6</title></rect>
  <rect x="340" y="64" width="11" height="11" rx="2" ry="2" fill="#ebedf0"><title>2024-05-28: 0</title></rect>
  <rect x="340" y="78" width="11" height="11" rx="2" ry="2" fill="#9be9a8"><title>2024-05-29: 9</title></rect>
  <rect x="340" y="92" width="11" height="11" rx="2" ry="2" fill="#216e39"><title>2024-05-30: 38</title></rect>
  <rect x="340" y="106" width="11" height="11" rx="2" ry="2" fill="#ebedf0"><title>2024-05-31: 0</title></rect>
  <rect x="340" y="120" width="11" height="11" rx="2" ry="2" fill="#ebedf0"><title>2024-06-01: 0</title></rect>
  <rect x="354" y="36" width="11" height="11" rx="2" ry="2" fill="#216e39"><title>2024-06-02: 39</title></rect>
  <rect x="354" y="50" width="11" height="11" rx="2" ry="2" fill="#ebedf0"><title>2024-06-03: 0</title></rect>
  <rect x="354" y="64" width="11" height="11" rx="2" ry="2" fill="#ebedf0"><title>2024-06-04: 0</title></rect>
  <rect x="354" y="78" width="11" height="11" rx="2" ry="2" fill="#216e39"><title>2024-06-05: 36</title></rect>
  <rect x="354" y="92" width="11" height="11" rx="2" ry="2" fill="#9be9a8"><title>2024-06-06: 2</title></rect>
  <rect x="354" y="106" width="11" height="11" rx="2" ry="2" fill="#216e39"><title>2024-06-07: 42</title></rect>
  <rect x="354" y="120" width="11" height="11" rx="2" ry="2" fill="#9be9a8"><title>2024-06-08: 9</title></rect>
  <rect x="368" y="36" width="11" height="11" rx="2" ry="2" fill="#40c463"><title>2024-06-09: 13</title></rect>
  <rect x="368" y="50" width="11" height="11" rx="2" ry="2" fill="#ebedf0"><title>2024-06-10: 0</title></rect>
  <rect x="368" y="64" width="11" height="11" rx="2" ry="2" fill="#40c463"><title>2024-06-11: 17</title></rect>
  <rect x="368" y="78" width="11" height="11" rx="2" ry="2" fill="#30a14e"><title>2024-06-12: 33</title></rect>
  <rect x="368" y="92" width="11" height="11" rx="2" ry="2" fill="#216e39"><title>2024-06-13: 38</title></rect>
  <rect x="368" y="106" width="11" height="11" rx="2" ry="2" fill="#216e39"><title>2024-06-14: 35</title></rect>
  <rect x="368" y="120" width="11" height="11" rx="2" ry="2" fill="#9be9a8"><title>2024-06-15: 9</title></rect>
  <rect x="382" y="36" width="11" height="11" rx="2" ry="2" fill="#30a14e"><title>2024-06-16: 23</title></rect>
  <rect x="382" y="50" width="11" height="11" rx="2" ry="2" fill="#ebedf0"><title>2024-06-17: 0</title></rect>
  <rect x="382" y="64" width="11" height="11" rx="2" ry="2" fill="#ebedf0"><title>2024-06-18: 0</title></rect>
  <rect x="382" y="78" width="11" height="11" rx="2" ry="2" fill="#ebedf0"><title>2024-06-19: 0</title></rect>
  <rect x="382" y="92" width="11" height="11" rx="2" ry="2" fill="#30a14e"><title>2024-06-20: 33</title></rect>
  <rect x="382" y="106" width="11" height="11" rx="2" ry="2" fill="#9be9a8"><title>2024-06-21: 10</title></rect>
  <rect x="382" y="120" width="11" height="11" rx="2" ry="2" fill="#9be9a8"><title>2024-06-22: 2</title></rect>
  <rect x="396" y="36" width="11" height="11" rx="2" ry="2" fill="#ebedf0"><title>2024-06-23: 0</title></rect>
  <rect x="396" y="50" width="11" height="11" rx="2" ry="2" fill="#ebedf0"><title>2024-06-24: 0</title></rect>
  <rect x="396" y="64" width="11" height="11" rx="2" ry="2" fill="#ebedf0"><title>2024-06-25: 0</title></rect>
  <rect x="396" y="78" width="11" height="11" rx="2" ry="2" fill="#ebedf0"><title>2024-06-26: 0</title></rect>
  <rect x="396" y="92" width="11" height="11" rx="2" ry="2" fill="#9be9a8"><title>2024-06-27: 10</title></rect>
  <rect x="396" y="106" width="11" height="11" rx="2" ry="2" fill="#9be9a8"><title>2024-06-28: 8</title></rect>
  <rect x="396" y="120" width="11" height="11" rx="2" ry="2" fill="#40c463"><title>2024-06-29: 21</title></rect>
  <rect x="410" y="36" width="11" height="11" rx="2" ry="2" fill="#ebedf0"><title>2024-06-30: 0</title></rect>
  <rect x="410" y="50" width="11" height="11" rx="2" ry="2" fill="#30a14e"><title>2024-07-01: 31</title></rect>
  <rect x="410" y="64" width="11" height="11" rx="2" ry="2" fill="#ebedf0"><title>2024-07-02: 0</title></rect>
  <rect x="410" y="78" width="11" height="11" rx="2" ry="2" fill="#216e39"><title>2024-07-03: 36</title></rect>
  <rect x="410" y="92" width="11" height="11" rx="2" ry="2" fill="#40c463"><title>2024-07-04: 13</title></rect>
  <rect x="410" y="106" width="11" height="11" rx="2" ry="2" fill="#9be9a8"><title>2024-07-05: 7</title></rect>
  <rect x="410" y="120" width="11" height="11" rx="2" ry="2" fill="#216e39"><title>2024-07-06: 36</title></rect>
  <rect x="424" y="36" width="11" height="11" rx="2" ry="2" fill="#9be9a8"><title>2024-07-07: 5</title></rect>
  <rect x="424" y="50" width="11" height="11" rx="2" ry="2" fill="#216e39"><title>2024-07-08: 40</title></rect>
  <rect x="424" y="64" width="11" height="11" rx="2" ry="2" fill="#ebedf0"><title>2024-07-09: 0</title></rect>
  <rect x="424" y="78" width="11" height="11" rx="2" ry="2" fill="#ebedf0"><title>2024-07-10: 0</title></rect>
  <rect x="424" y="92" width="11" height="11" rx="2" ry="2" fill="#40c463"><title>2024-07-11: 18</title></rect>
  <rect x="424" y="106" width="11" height="11" rx="2" ry="2" fill="#216e39"><title>2024-07-12: 35</title></rect>
  <rect x="424" y="120" width="11" height="11" rx="2" ry="2" fill="#ebedf0"><title>2024-07-13: 0</title></rect>
  <rect x="438" y="36" width="11" height="11" rx="2" ry="2" fill="#40c463"><title>2024-07-14: 16</title></rect>
  <rect x="438" y="50" width="11" height="11" rx="2" ry="2" fill="#ebedf0"><title>2024-07-15: 0</title></rect>
  <rect x="438" y="64" width="11" height="11" rx="2" ry="2" fill="#ebedf0"><title>2024-07-16: 0</title></rect>
  <rect x="438" y="78" width="11" height="11" rx="2" ry="2" fill="#ebedf0"><title>2024-07-17: 0</title></rect>
  <rect x="438" y="92" width="11" height="11" rx="2" ry="2" fill="#216e39"><title>2024-07-18: 36</title></rect>
  <text x="46" y="153" font-family="sans-serif" font-size="9" fill="#767676">Less</text>
  <rect x="70" y="143" width="11" height="11" rx="2" ry="2" fill="#ebedf0"/>
  <rect x="83" y="143" width="11" height="11" rx="2" ry="2" fill="#9be9a8"/>
  <rect x="96" y="143" width="11" height="11" rx="2" ry="2" fill="#40c463"/>
  <rect x="109" y="143" width="11" height="11" rx="2" ry="2" fill="#30a14e"/>
  <rect x="122" y="143" width="11" height="11" rx="2" ry="2" fill="#216e39"/>
  <text x="135" y="153" font-family="sans-serif" font-size="9" fill="#767676">More</text>
</svg>
